<svg width="63" height="13" viewBox="0 0 63 13" fill="none" xmlns="http://www.w3.org/2000/svg">
<path d="M5 1.27661L6.12257 4.73153H9.75528L6.81636 6.86678L7.93893 10.3217L5 8.18644L2.06107 10.3217L3.18364 6.86678L0.244718 4.73153H3.87743L5 1.27661Z" fill="#F6C336"/>
<path d="M18 1.27661L19.1226 4.73153H22.7553L19.8164 6.86678L20.9389 10.3217L18 8.18644L15.0611 10.3217L16.1836 6.86678L13.2447 4.73153H16.8774L18 1.27661Z" fill="#F6C336"/>
<path d="M31 1.27661L32.1226 4.73153H35.7553L32.8164 6.86678L33.9389 10.3217L31 8.18644L28.0611 10.3217L29.1836 6.86678L26.2447 4.73153H29.8774L31 1.27661Z" fill="#F6C336"/>
<path d="M44 1.27661L45.1226 4.73153H48.7553L45.8164 6.86678L46.9389 10.3217L44 8.18644L41.0611 10.3217L42.1836 6.86678L39.2447 4.73153H42.8774L44 1.27661Z" fill="#F6C336"/>
<path d="M51.2335 4.76651L54.8126 4.66725L55.9632 1.27674L57.1636 4.64997L60.7438 4.69661L57.9066 6.88064L58.9686 10.3L56.0147 8.27655L53.0909 10.3432L54.1025 6.9086L51.2335 4.76651Z" fill="#F6C336"/>
</svg>
